<svg width="1470" height="259" viewBox="0 0 1470 259" fill="none" xmlns="http://www.w3.org/2000/svg">
<path d="M262.009 0.114602C153.047 -3.2125 131.004 66.6538 131.004 129.04C131.004 129.04 193.388 132.156 228.738 97.8476C269.944 57.8562 262.009 0.114602 262.009 0.114602Z" fill="#F9F7EA" fill-opacity="0.06"/>
<path d="M131.004 128.999C22.042 132.326 -0.00022309 62.4594 1.69342e-09 0.0736625C1.69342e-09 0.0736625 62.3831 -3.0428 97.7337 31.2657C138.94 71.2571 131.004 128.999 131.004 128.999Z" fill="#F9F7EA" fill-opacity="0.06"/>
<path d="M262.009 257.924C153.047 261.251 131.004 191.384 131.004 128.999C131.004 128.999 193.388 125.882 228.738 160.191C269.944 200.182 262.009 257.924 262.009 257.924Z" fill="#F9F7EA" fill-opacity="0.06"/>
<path d="M131.004 129.04C22.042 125.713 -0.00022309 195.579 1.69342e-09 257.965C1.69342e-09 257.965 62.3831 261.081 97.7337 226.773C138.94 186.781 131.004 129.04 131.004 129.04Z" fill="#F9F7EA" fill-opacity="0.06"/>
<path d="M338.616 66.1509C332.48 48.6716 330.965 18.7161 373.495 36.9048C373.499 36.9178 373.555 36.9184 373.56 36.9312C373.577 36.9383 373.565 37.0131 373.581 37.0225C377.353 53.108 376.045 62.5949 372.072 67.7348C377.468 63.3386 387.468 62.8116 404.687 70.1757C404.691 70.1887 404.747 70.1894 404.752 70.2021C404.769 70.2092 404.757 70.284 404.772 70.2935C415.334 115.333 386.093 108.658 369.938 99.5904C369.929 99.5675 369.857 99.5668 369.848 99.5437C369.821 99.5278 369.835 99.438 369.808 99.4219C366.499 89.9981 364.538 76.9505 370.094 69.7737C362.304 76.1639 348.259 71.6589 338.746 66.3194C338.737 66.2965 338.665 66.2958 338.657 66.2727C338.629 66.2568 338.644 66.1671 338.616 66.1509Z" fill="#F9F7EA" fill-opacity="0.06"/>
<path d="M305.345 34.9594C299.209 17.4799 297.694 -12.4758 340.225 5.71322C340.228 5.72609 340.284 5.72674 340.287 5.73962C340.304 5.74783 340.292 5.82558 340.31 5.83303C350.871 50.8719 321.628 44.1976 305.473 35.1299C305.465 35.1071 305.394 35.1061 305.386 35.0832C305.358 35.0668 305.373 34.9757 305.345 34.9594Z" fill="#F9F7EA" fill-opacity="0.06"/>
<path d="M527.512 66.1507C533.649 48.6713 535.162 18.7164 492.633 36.9046C492.63 36.9178 492.573 36.9198 492.57 36.933C492.554 36.9426 492.565 37.017 492.548 37.0244C488.775 53.1133 490.086 62.6015 494.061 67.7408C488.666 63.3409 478.666 62.8094 461.441 70.1756C461.438 70.1884 461.386 70.1898 461.381 70.202C461.363 70.2094 461.375 70.2864 461.358 70.2954C450.797 115.335 480.038 108.66 496.193 99.5923C496.201 99.5696 496.272 99.5684 496.28 99.5456C496.308 99.5298 496.293 99.4386 496.321 99.4217C499.629 89.9997 501.591 76.9551 496.038 69.7776C503.828 76.1653 517.873 71.6622 527.384 66.3233C527.392 66.3006 527.463 66.2992 527.472 66.2766C527.5 66.2607 527.484 66.1666 527.512 66.1507Z" fill="#F9F7EA" fill-opacity="0.06"/>
<path d="M560.783 34.9592C566.92 17.4797 568.435 -12.4746 525.904 5.71509C525.901 5.72842 525.841 5.72848 525.837 5.74149C525.821 5.74943 525.835 5.82583 525.819 5.83287C515.257 50.8735 544.501 44.1977 560.655 35.1298C560.664 35.1063 560.734 35.1045 560.743 35.081C560.77 35.0652 560.756 34.9754 560.783 34.9592Z" fill="#F9F7EA" fill-opacity="0.06"/>
<path d="M338.617 191.888C332.48 209.367 330.965 239.323 373.496 221.134C373.5 221.121 373.556 221.12 373.561 221.107C373.578 221.1 373.566 221.023 373.583 221.016C377.355 204.93 376.045 195.443 372.072 190.304C377.468 194.7 387.468 195.227 404.687 187.863C404.692 187.85 404.747 187.849 404.75 187.836C404.768 187.829 404.755 187.75 404.773 187.743C415.334 142.704 386.091 149.378 369.936 158.446C369.928 158.469 369.857 158.47 369.849 158.493C369.821 158.509 369.836 158.601 369.808 158.617C366.5 168.04 364.539 181.088 370.094 188.265C362.305 181.875 348.259 186.38 338.747 191.719C338.738 191.742 338.669 191.743 338.659 191.766C338.631 191.781 338.644 191.872 338.617 191.888Z" fill="#F9F7EA" fill-opacity="0.06"/>
<path d="M305.344 223.079C299.207 240.558 297.694 270.513 340.223 252.325C340.226 252.312 340.287 252.31 340.29 252.297C340.306 252.287 340.294 252.213 340.31 252.205C350.871 207.167 321.628 213.841 305.474 222.909C305.465 222.932 305.395 222.934 305.386 222.957C305.358 222.973 305.371 223.063 305.344 223.079Z" fill="#F9F7EA" fill-opacity="0.06"/>
<path d="M527.508 191.89C533.644 209.369 535.156 239.322 492.627 221.134C492.621 221.121 492.567 221.12 492.564 221.107C492.547 221.098 492.559 221.021 492.542 221.014C488.77 204.929 490.08 195.443 494.052 190.304C488.656 194.7 478.657 195.227 461.437 187.863C461.433 187.85 461.377 187.849 461.374 187.836C461.357 187.829 461.37 187.75 461.352 187.743C450.792 142.707 480.034 149.379 496.189 158.446C496.197 158.469 496.265 158.47 496.274 158.493C496.303 158.509 496.289 158.601 496.317 158.619C499.625 168.043 501.586 181.091 496.028 188.267C503.817 181.874 517.865 186.377 527.378 191.717C527.386 191.74 527.457 191.741 527.466 191.764C527.494 191.78 527.48 191.873 527.508 191.89Z" fill="#F9F7EA" fill-opacity="0.06"/>
<path d="M560.781 223.081C566.917 240.561 568.431 270.513 525.902 252.325C525.898 252.312 525.843 252.312 525.839 252.299C525.822 252.291 525.834 252.213 525.817 252.205C515.256 207.167 544.498 213.841 560.653 222.909C560.662 222.931 560.73 222.932 560.739 222.955C560.767 222.971 560.753 223.064 560.781 223.081Z" fill="#F9F7EA" fill-opacity="0.06"/>
<path d="M434.179 97.787C434.526 98.8293 436.883 107.146 438.338 114.422C439.256 119.011 439.211 122.145 438.691 124.241C440.783 123.635 444.01 123.534 448.863 124.505C456.141 125.961 464.459 128.317 465.499 128.664C464.459 129.01 456.141 131.367 448.863 132.823C443.511 133.893 440.137 133.658 438.082 132.882C438.859 134.936 439.092 138.311 438.021 143.665C436.566 150.943 434.209 159.26 433.863 160.3C433.516 159.259 431.159 150.942 429.704 143.665C428.61 138.194 428.873 134.788 429.691 132.748C427.675 133.629 424.231 133.955 418.581 132.825C411.305 131.369 402.988 129.013 401.946 128.666C402.986 128.319 411.304 125.963 418.581 124.507C424.295 123.364 427.754 123.706 429.76 124.61C429.151 122.52 429.047 119.288 430.02 114.422C431.476 107.145 433.832 98.8279 434.179 97.787Z" fill="#F9F7EA" fill-opacity="0.06"/>
<path d="M865.514 0.114602C756.551 -3.2125 734.509 66.6538 734.509 129.04C734.509 129.04 796.892 132.156 832.243 97.8476C873.449 57.8562 865.514 0.114602 865.514 0.114602Z" fill="#F9F7EA" fill-opacity="0.06"/>
<path d="M734.509 128.999C625.547 132.326 603.505 62.4594 603.505 0.0736625C603.505 0.0736625 665.888 -3.0428 701.239 31.2657C742.445 71.2571 734.509 128.999 734.509 128.999Z" fill="#F9F7EA" fill-opacity="0.06"/>
<path d="M865.514 257.924C756.551 261.251 734.509 191.384 734.509 128.999C734.509 128.999 796.892 125.882 832.243 160.191C873.449 200.182 865.514 257.924 865.514 257.924Z" fill="#F9F7EA" fill-opacity="0.06"/>
<path d="M734.509 129.04C625.547 125.713 603.505 195.579 603.505 257.965C603.505 257.965 665.888 261.081 701.239 226.773C742.445 186.781 734.509 129.04 734.509 129.04Z" fill="#F9F7EA" fill-opacity="0.06"/>
<path d="M942.121 66.151C935.985 48.6717 934.47 18.7161 977.001 36.9049C977.005 36.9178 977.061 36.9185 977.066 36.9313C977.083 36.9385 977.071 37.0154 977.088 37.0227C980.86 53.1088 979.55 62.5951 975.577 67.735C980.973 63.3383 990.972 62.8114 1008.19 70.1759C1008.2 70.1885 1008.25 70.1893 1008.26 70.2023C1008.27 70.2099 1008.26 70.2882 1008.28 70.2957C1018.84 115.334 989.596 108.66 973.441 99.5926C973.433 99.5697 973.362 99.5688 973.354 99.5459C973.326 99.5292 973.341 99.438 973.313 99.422C970.005 89.9985 968.044 76.9507 973.599 69.7738C965.809 76.1633 951.764 71.6588 942.251 66.3196C942.242 66.2969 942.174 66.2953 942.164 66.2729C942.136 66.2572 942.149 66.1667 942.121 66.151Z" fill="#F9F7EA" fill-opacity="0.06"/>
<path d="M908.848 34.9595C902.712 17.4802 901.199 -12.4742 943.728 5.71335C943.731 5.72685 943.792 5.72829 943.795 5.74178C943.81 5.75112 943.798 5.82603 943.815 5.83316C954.376 50.8721 925.133 44.1977 908.978 35.1301C908.97 35.1066 908.899 35.1048 908.891 35.0813C908.863 35.0656 908.876 34.9752 908.848 34.9595Z" fill="#F9F7EA" fill-opacity="0.06"/>
<path d="M1131.02 66.1503C1137.15 48.6706 1138.67 18.7178 1096.14 36.9062C1096.13 36.919 1096.08 36.9196 1096.07 36.9326C1096.06 36.9405 1096.07 37.0186 1096.05 37.026C1092.28 53.1145 1093.59 62.6013 1097.57 67.7404C1092.17 63.3405 1082.17 62.8089 1064.95 70.1752C1064.94 70.1884 1064.89 70.1904 1064.88 70.2036C1064.87 70.2131 1064.88 70.2876 1064.86 70.295C1054.3 115.334 1083.54 108.661 1099.7 99.5939C1099.71 99.5713 1099.78 99.5695 1099.78 99.5472C1099.81 99.531 1099.8 99.4355 1099.83 99.4193C1103.13 89.997 1105.09 76.9539 1099.54 69.7772C1107.33 76.1662 1121.38 71.6621 1130.89 66.3229C1130.9 66.3001 1130.97 66.2991 1130.98 66.2762C1131 66.2593 1130.99 66.1665 1131.02 66.1503Z" fill="#F9F7EA" fill-opacity="0.06"/>
<path d="M1164.29 34.9588C1170.42 17.479 1171.94 -12.476 1129.41 5.71469C1129.4 5.72819 1129.34 5.72964 1129.34 5.74312C1129.33 5.75151 1129.34 5.82554 1129.32 5.83248C1118.76 50.8723 1148 44.197 1164.16 35.1294C1164.17 35.1059 1164.24 35.1041 1164.25 35.0806C1164.27 35.0637 1164.26 34.9744 1164.29 34.9588Z" fill="#F9F7EA" fill-opacity="0.06"/>
<path d="M942.122 191.89C935.985 209.369 934.471 239.324 977.001 221.136C977.004 221.122 977.061 221.12 977.064 221.107C977.081 221.099 977.069 221.023 977.086 221.016C980.858 204.93 979.548 195.443 975.575 190.304C980.971 194.7 990.971 195.227 1008.19 187.863C1008.19 187.85 1008.25 187.85 1008.26 187.836C1008.27 187.827 1008.26 187.752 1008.28 187.745C1018.84 142.705 989.596 149.38 973.441 158.448C973.432 158.471 973.364 158.472 973.354 158.495C973.326 158.51 973.339 158.601 973.311 158.617C970.003 168.04 968.042 181.088 973.598 188.265C965.808 181.875 951.762 186.38 942.25 191.719C942.24 191.741 942.171 191.742 942.162 191.764C942.134 191.78 942.15 191.874 942.122 191.89Z" fill="#F9F7EA" fill-opacity="0.06"/>
<path d="M908.849 223.079C902.712 240.558 901.198 270.514 943.728 252.325C943.731 252.312 943.791 252.312 943.795 252.299C943.811 252.29 943.799 252.215 943.815 252.207C954.377 207.168 925.134 213.843 908.979 222.91C908.969 222.933 908.901 222.935 908.891 222.957C908.863 222.973 908.876 223.063 908.849 223.079Z" fill="#F9F7EA" fill-opacity="0.06"/>
<path d="M1131.01 191.892C1137.15 209.372 1138.66 239.324 1096.13 221.136C1096.13 221.123 1096.07 221.121 1096.07 221.108C1096.05 221.1 1096.06 221.026 1096.05 221.016C1092.28 204.933 1093.58 195.446 1097.55 190.306C1092.16 194.7 1082.16 195.225 1064.94 187.863C1064.94 187.85 1064.88 187.849 1064.88 187.837C1064.86 187.829 1064.87 187.753 1064.86 187.745C1054.3 142.707 1083.54 149.381 1099.69 158.448C1099.7 158.472 1099.77 158.473 1099.78 158.497C1099.81 158.513 1099.8 158.602 1099.82 158.619C1103.13 168.041 1105.09 181.086 1099.54 188.263C1107.33 181.877 1121.37 186.381 1130.88 191.719C1130.89 191.741 1130.96 191.742 1130.97 191.764C1131 191.78 1130.98 191.876 1131.01 191.892Z" fill="#F9F7EA" fill-opacity="0.06"/>
<path d="M1164.29 223.079C1170.42 240.559 1171.94 270.513 1129.41 252.326C1129.4 252.313 1129.35 252.312 1129.34 252.299C1129.33 252.292 1129.34 252.214 1129.32 252.206C1118.76 207.167 1148 213.841 1164.16 222.909C1164.17 222.931 1164.24 222.933 1164.24 222.956C1164.27 222.971 1164.26 223.064 1164.29 223.079Z" fill="#F9F7EA" fill-opacity="0.06"/>
<path d="M1037.68 97.7873C1038.03 98.8272 1040.39 107.145 1041.84 114.423C1042.76 119.011 1042.72 122.145 1042.2 124.241C1044.29 123.635 1047.51 123.535 1052.37 124.505C1059.65 125.961 1067.96 128.317 1069 128.664C1067.96 129.011 1059.65 131.367 1052.37 132.823C1047.02 133.893 1043.64 133.659 1041.59 132.882C1042.36 134.936 1042.6 138.311 1041.53 143.665C1040.07 150.942 1037.72 159.26 1037.37 160.3C1037.02 159.261 1034.67 150.943 1033.21 143.665C1032.12 138.192 1032.38 134.786 1033.2 132.746C1031.18 133.628 1027.74 133.953 1022.09 132.823C1014.81 131.367 1006.49 129.011 1005.45 128.664C1006.49 128.317 1014.81 125.961 1022.09 124.505C1027.8 123.363 1031.26 123.705 1033.27 124.609C1032.66 122.518 1032.55 119.287 1033.52 114.423C1034.98 107.145 1037.34 98.8272 1037.68 97.7873Z" fill="#F9F7EA" fill-opacity="0.06"/>
<path d="M1469.02 0.114602C1360.06 -3.2125 1338.01 66.6538 1338.01 129.04C1338.01 129.04 1400.4 132.156 1435.75 97.8476C1476.95 57.8562 1469.02 0.114602 1469.02 0.114602Z" fill="#F9F7EA" fill-opacity="0.06"/>
<path d="M1338.01 128.999C1229.05 132.326 1207.01 62.4594 1207.01 0.0736625C1207.01 0.0736625 1269.39 -3.0428 1304.74 31.2657C1345.95 71.2571 1338.01 128.999 1338.01 128.999Z" fill="#F9F7EA" fill-opacity="0.06"/>
<path d="M1469.02 257.924C1360.06 261.251 1338.01 191.384 1338.01 128.999C1338.01 128.999 1400.4 125.882 1435.75 160.191C1476.95 200.182 1469.02 257.924 1469.02 257.924Z" fill="#F9F7EA" fill-opacity="0.06"/>
<path d="M1338.01 129.04C1229.05 125.713 1207.01 195.579 1207.01 257.965C1207.01 257.965 1269.39 261.081 1304.74 226.773C1345.95 186.781 1338.01 129.04 1338.01 129.04Z" fill="#F9F7EA" fill-opacity="0.06"/>
</svg>
